<svg width="96" height="64" viewBox="0 0 96 64" fill="none" xmlns="http://www.w3.org/2000/svg">
<mask id="mask0_3340_33723" style="mask-type:luminance" maskUnits="userSpaceOnUse" x="0" y="0" width="96" height="64">
<path d="M95.0304 0H0V64H95.0304V0Z" fill="white"/>
</mask>
<g mask="url(#mask0_3340_33723)">
<path d="M2.13452 36.1614C3.06356 36.8783 4.03319 37.2641 5.20102 37.2641C6.55741 37.2641 7.37014 36.7136 7.37014 35.8433C7.37014 34.9731 6.74252 34.4629 4.83216 34.0915C1.6239 33.4554 0.0273438 31.8828 0.0273438 29.5094C0.0273438 27.1101 2.15104 25.3438 5.36618 25.3438C8.29091 25.3438 10.1428 26.7097 10.8853 28.8748C11.0856 29.469 10.7284 29.8549 10.0857 29.8549H8.19388C7.66881 29.8549 7.42519 29.6062 7.15611 29.1654C6.82235 28.6537 6.28558 28.3776 5.55818 28.3776C4.63052 28.3776 3.85977 28.8329 3.85977 29.5659C3.85977 30.2989 4.55896 30.9447 6.21539 31.2757C9.63698 31.9522 11.2039 33.4699 11.2039 35.8837C11.2039 38.4105 9.02313 40.3012 5.3648 40.3012C3.41246 40.3012 1.78562 39.4939 0.389323 37.9536C0.00394657 37.5419 0.0473005 37.114 0.419602 36.7136L0.860031 36.2292C1.24541 35.8013 1.67207 35.7884 2.14141 36.1614" fill="#131CA2"/>
<path d="M20.087 25.3438C24.7934 25.3438 28.2872 28.6407 28.2872 32.8225C28.2872 37.0042 24.7934 40.2995 20.087 40.2995C15.3806 40.2995 11.8867 37.0026 11.8867 32.8225C11.8867 28.6424 15.3909 25.3438 20.087 25.3438ZM20.087 36.9477C20.9307 36.948 21.7551 36.7062 22.457 36.2529C23.1583 35.7996 23.7054 35.155 24.0281 34.4009C24.3509 33.6468 24.4355 32.8168 24.2711 32.0161C24.1066 31.2154 23.7006 30.48 23.1039 29.9028C22.5073 29.3255 21.7475 28.9324 20.9204 28.7733C20.0932 28.614 19.235 28.6959 18.456 29.0085C17.677 29.321 17.0108 29.8502 16.5422 30.5291C16.0736 31.208 15.8238 32.0061 15.8244 32.8225C15.8155 33.3666 15.9194 33.9069 16.1307 34.4114C16.3413 34.9158 16.6551 35.3741 17.0528 35.7589C17.4506 36.1437 17.9241 36.4473 18.445 36.6514C18.9666 36.8557 19.5247 36.9564 20.087 36.9477Z" fill="#131CA2"/>
<path d="M30.2758 19.8281H32.3713C32.9569 19.8281 33.2838 20.151 33.2838 20.7129V39.0996C33.2838 39.6663 32.95 39.9844 32.3713 39.9844H30.2758C29.6902 39.9844 29.3633 39.6615 29.3633 39.0996V20.7129C29.3633 20.1462 29.697 19.8281 30.2758 19.8281Z" fill="#131CA2"/>
<path d="M41.5238 25.3438C43.591 25.3438 45.2612 26.114 46.4442 27.3846V26.558C46.4442 25.9913 46.7773 25.6748 47.3546 25.6748H49.4088C49.9945 25.6748 50.3213 25.9977 50.3213 26.558V39.0935C50.3213 39.6602 49.9876 39.9783 49.4088 39.9783H47.3484C46.7642 39.9783 46.4373 39.6553 46.4373 39.0935V38.2684C45.2543 39.5359 43.5841 40.3076 41.5169 40.3076C37.3961 40.3076 34.3867 37.0107 34.3867 32.8305C34.3867 28.6504 37.3899 25.3519 41.5169 25.3519L41.5238 25.3438ZM42.3599 36.9558C44.6384 36.9558 46.4373 35.1636 46.4373 32.8305C46.4373 30.4975 44.6453 28.6956 42.3661 28.6956C40.0875 28.6956 38.3293 30.5024 38.3293 32.8225C38.3293 35.1426 40.0958 36.9477 42.3661 36.9477" fill="#131CA2"/>
<path d="M56.3151 32.404V39.1029C56.3151 39.6696 55.9813 39.9876 55.4025 39.9876H53.305C52.7214 39.9876 52.3945 39.6647 52.3945 39.1029V26.5738C52.3945 26.0087 52.7283 25.6906 53.305 25.6906H55.4025C55.9882 25.6906 56.3151 26.0135 56.3151 26.5738V27.4441C57.2578 26.2283 58.5674 25.3596 60.2638 25.3596C60.4606 25.3568 60.6574 25.3758 60.8494 25.4161C61.3766 25.5114 61.5906 25.9264 61.5486 26.4365L61.4185 28.0366C61.3635 28.6307 60.9912 28.8519 60.3643 28.7534C60.1661 28.7281 59.9665 28.7146 59.7669 28.7131C57.8834 28.7131 56.3151 30.1904 56.3151 32.412" fill="#131CA2"/>
<path d="M2.1058 53.8182C3.02796 54.5335 3.99553 54.921 5.16198 54.921C6.51355 54.921 7.32283 54.3704 7.32283 53.5034C7.32283 52.6363 6.69866 52.1261 4.79312 51.7548C1.59174 51.1219 0 49.5525 0 47.1855C0 44.7928 2.11888 43.0312 5.31888 43.0312C8.23329 43.0312 10.0817 44.3924 10.8243 46.5526C11.0245 47.1452 10.6694 47.5295 10.0301 47.5295H8.14176C7.61462 47.5295 7.37445 47.2824 7.104 46.8417C6.77024 46.3331 6.23621 46.0586 5.51088 46.0586C4.58666 46.0586 3.81866 46.5106 3.81866 47.2405C3.81866 47.9977 4.51647 48.6177 6.16464 48.9471C9.57797 49.6219 11.1429 51.1348 11.1429 53.5438C11.1429 56.0641 8.97445 57.9483 5.312 57.9483C3.36379 57.9483 1.74176 57.141 0.348901 55.6088C-0.0330349 55.1954 0.0151366 54.7692 0.378491 54.3704L0.817546 53.8861C1.20155 53.4598 1.62821 53.4453 2.09892 53.8166" fill="#131CA2"/>
<path d="M18.9429 43.0234C21.0047 43.0234 22.668 43.7952 23.8496 45.0595V44.2344C23.8496 43.6709 24.1833 43.3528 24.7586 43.3528H26.806C27.3895 43.3528 27.7171 43.6758 27.7171 44.2344V63.1249C27.7171 63.6883 27.3833 64.0048 26.806 64.0048H24.7586C24.1765 64.0048 23.8496 63.6819 23.8496 63.1249V55.9061C22.668 57.1703 21.0047 57.9437 18.9429 57.9437C14.8318 57.9437 11.832 54.6516 11.832 50.4828C11.832 46.3139 14.8352 43.0234 18.9429 43.0234ZM19.777 54.5984C22.0528 54.5984 23.8461 52.8077 23.8461 50.4828C23.8461 48.1578 22.0562 46.3673 19.7804 46.3673C17.5046 46.3673 15.758 48.1691 15.758 50.4812C15.758 52.7932 17.5198 54.6015 19.7804 54.6015" fill="#131CA2"/>
<path d="M29.4961 52.1846V44.2393C29.4961 43.6759 29.8299 43.3594 30.4059 43.3594H32.4993C33.0835 43.3594 33.4104 43.6823 33.4104 44.2393V51.7826C33.4104 53.3633 34.6897 54.6033 36.1968 54.6033C38.0466 54.6033 39.5331 53.2002 39.5331 50.956V44.2393C39.5331 43.6759 39.8668 43.3594 40.4422 43.3594H42.5328C43.1171 43.3594 43.444 43.6823 43.444 44.2393V56.7361C43.444 57.2996 43.1102 57.6177 42.5328 57.6177H40.4442C39.862 57.6177 39.5352 57.2947 39.5352 56.7361V56.0338C39.0252 56.6341 38.3838 57.1172 37.6578 57.4484C36.9318 57.7796 36.1383 57.9504 35.3359 57.9486C31.8806 57.9486 29.4961 55.635 29.4961 52.1814" fill="#131CA2"/>
<path d="M51.6596 43.0234C53.72 43.0234 55.3867 43.7952 56.5663 45.0595V44.2344C56.5663 43.6709 56.9 43.3528 57.4774 43.3528H59.5247C60.1069 43.3528 60.4338 43.6758 60.4338 44.2344V56.7296C60.4338 57.2947 60.1 57.6111 59.5247 57.6111H57.4774C56.8938 57.6111 56.5663 57.2882 56.5663 56.7296V55.9062C55.3867 57.1703 53.72 57.9437 51.6596 57.9437C47.5505 57.9437 44.5508 54.6516 44.5508 50.4828C44.5508 46.3139 47.554 43.0234 51.6596 43.0234ZM52.4943 54.5984C54.7681 54.5984 56.5614 52.8077 56.5614 50.4828C56.5614 48.1578 54.7729 46.3673 52.4992 46.3673C50.2248 46.3673 48.4768 48.1691 48.4768 50.4812C48.4768 52.7932 50.2364 54.6015 52.4992 54.6015" fill="#131CA2"/>
<path d="M66.4226 50.063V56.736C66.4226 57.3011 66.0888 57.6176 65.5128 57.6176H63.4208C62.8386 57.6176 62.5117 57.2947 62.5117 56.736V44.2409C62.5117 43.6757 62.8455 43.3593 63.4208 43.3593H65.5128C66.0971 43.3593 66.4226 43.6822 66.4226 44.2409V45.1079C67.362 43.8969 68.6695 43.0316 70.3631 43.0316C70.5578 43.0287 70.7526 43.0465 70.9439 43.0848C71.4724 43.1817 71.6844 43.595 71.641 44.1036L71.5144 45.7004C71.4573 46.2914 71.087 46.5077 70.4615 46.4157C70.2667 46.3885 70.0699 46.3746 69.8724 46.3737C67.9958 46.3737 66.4309 47.8462 66.4309 50.0614" fill="#131CA2"/>
<path d="M79.4753 54.9277C81.1689 54.9277 82.4784 54.4611 83.6559 53.565C84.1115 53.2211 84.5519 53.2421 84.949 53.6199L85.6468 54.2948C86.0604 54.6936 86.09 55.1489 85.675 55.5477C84.8609 56.3258 83.894 56.9385 82.8315 57.3497C81.7689 57.7609 80.6328 57.9623 79.4883 57.9421C74.455 57.9421 71.1133 54.6516 71.1133 50.4828C71.1133 46.3139 74.5555 43.0234 79.1215 43.0234C83.6263 43.0234 86.8442 46.2526 86.8442 50.2341C86.8442 50.415 86.8291 50.6216 86.816 50.8137C86.7575 51.3498 86.3873 51.6098 85.8333 51.6098H75.0675C75.4095 53.594 77.1141 54.9277 79.4753 54.9277ZM75.1673 48.915H82.815C82.3848 47.2246 80.9968 46.0475 79.0913 46.0475C78.2015 46.0424 77.3344 46.3215 76.6249 46.8417C75.9153 47.3619 75.4033 48.0941 75.1673 48.9247" fill="#131CA2"/>
<path d="M70.2445 5.57315V2.03239C70.2459 1.85896 70.204 1.68777 70.1234 1.53287C70.0429 1.37797 69.9252 1.24379 69.7807 1.14135C69.6362 1.03892 69.4683 0.97114 69.2914 0.943599C69.1146 0.916058 68.9336 0.929533 68.7629 0.982921C67.015 1.54337 65.3558 2.33733 63.8349 3.34181C63.6835 3.44325 63.5597 3.57894 63.475 3.73707C63.3904 3.8952 63.3463 4.071 63.3477 4.2492V5.57315C63.3477 5.86448 63.4667 6.1439 63.6794 6.35006C63.8927 6.55621 64.1811 6.67224 64.4818 6.67267H69.107C69.2563 6.67288 69.4043 6.6446 69.5419 6.58944C69.6803 6.53427 69.8055 6.45332 69.9115 6.3512C70.0168 6.24907 70.1007 6.12779 70.1578 5.99429C70.215 5.86078 70.2445 5.71767 70.2445 5.57315Z" fill="#00BDFF"/>
<path d="M78.5037 5.57516V1.24003C78.5023 0.969428 78.3984 0.708776 78.2119 0.507155C78.0254 0.305537 77.7687 0.176861 77.4914 0.145354C75.8728 -0.0484512 74.235 -0.0484512 72.6164 0.145354C72.3391 0.176892 72.0824 0.305628 71.8966 0.507283C71.7101 0.708934 71.6068 0.969573 71.6055 1.24003V5.57516C71.6055 5.86649 71.7245 6.14591 71.9372 6.35207C72.1505 6.55822 72.4389 6.67425 72.7396 6.67468H77.3648C77.5141 6.67489 77.6621 6.64662 77.8004 6.59148C77.938 6.53634 78.064 6.4554 78.1693 6.35331C78.2752 6.2512 78.3592 6.12994 78.417 5.99642C78.4741 5.86291 78.5037 5.71976 78.5037 5.57516Z" fill="#00BDFF"/>
<path d="M86.768 5.57315V4.2492C86.7694 4.071 86.7253 3.8952 86.6407 3.73707C86.5553 3.57894 86.4322 3.44325 86.2808 3.34181C84.7599 2.33702 83.1007 1.54303 81.3521 0.982921C81.1821 0.929533 81.0004 0.916058 80.8235 0.943599C80.6467 0.97114 80.4795 1.03892 80.3343 1.14135C80.1897 1.24379 80.0728 1.37797 79.9922 1.53287C79.911 1.68777 79.8698 1.85896 79.8711 2.03239V5.57315C79.8704 5.71746 79.9 5.8604 79.9565 5.99379C80.0136 6.12719 80.0975 6.24841 80.2028 6.35053C80.3081 6.45265 80.4334 6.53366 80.571 6.58894C80.7086 6.64422 80.8559 6.67267 81.0052 6.67267H85.6297C85.7798 6.67288 85.927 6.6446 86.0654 6.58944C86.2037 6.53427 86.3289 6.45332 86.4342 6.3512C86.5402 6.24907 86.6242 6.12779 86.6813 5.99429C86.7384 5.86078 86.768 5.71767 86.768 5.57315Z" fill="#00BDFF"/>
<path d="M60.8473 7.99221H59.4793C59.2948 7.99117 59.1132 8.0335 58.9494 8.11566C58.7856 8.19783 58.6452 8.31723 58.5399 8.46367C57.5028 9.93677 56.6818 11.5419 56.101 13.2331C56.046 13.3983 56.0329 13.5738 56.0618 13.7449C56.0907 13.9161 56.1609 14.0783 56.2676 14.2181C56.3735 14.3579 56.5119 14.4715 56.6722 14.5495C56.8326 14.6274 57.0094 14.6677 57.1883 14.6669H60.8473C60.9967 14.6671 61.1446 14.6388 61.2823 14.5836C61.4199 14.5284 61.5458 14.4474 61.6511 14.3453C61.7564 14.2431 61.8404 14.1218 61.8975 13.9884C61.9546 13.8549 61.9835 13.7118 61.9835 13.5674V9.09177C61.9828 8.80026 61.8631 8.52086 61.6504 8.31475C61.4371 8.10864 61.1481 7.99262 60.8473 7.99221Z" fill="#00BDFF"/>
<path d="M64.4838 7.99219H69.1084C69.4098 7.99219 69.6988 8.10801 69.9115 8.31425C70.1248 8.52043 70.2445 8.8001 70.2445 9.09168V13.5673C70.2445 13.7117 70.2156 13.8548 70.1585 13.9883C70.1014 14.1218 70.0181 14.2431 69.9121 14.3453C69.8069 14.4474 69.6816 14.5284 69.5433 14.5836C69.4057 14.6388 69.2577 14.667 69.1084 14.6668H64.4838C64.3345 14.667 64.1866 14.6388 64.0489 14.5836C63.9106 14.5284 63.7853 14.4474 63.6801 14.3453C63.5741 14.2431 63.4908 14.1218 63.4337 13.9883C63.3766 13.8548 63.347 13.7117 63.3477 13.5673V9.09168C63.3477 8.80024 63.4681 8.52077 63.6807 8.31467C63.8934 8.10856 64.1824 7.9926 64.4838 7.99219Z" fill="#00BDFF"/>
<path d="M72.7417 7.99219H77.3744C77.6759 7.99219 77.9649 8.10801 78.1782 8.31425C78.3909 8.52043 78.5106 8.8001 78.5106 9.09168V13.5673C78.5106 13.7117 78.4817 13.8548 78.4246 13.9883C78.3675 14.1218 78.2842 14.2431 78.1782 14.3453C78.0729 14.4474 77.9477 14.5284 77.8094 14.5836C77.6717 14.6388 77.5238 14.667 77.3744 14.6668H72.7417C72.5923 14.667 72.4444 14.6388 72.3067 14.5836C72.1684 14.5284 72.0432 14.4474 71.9379 14.3453C71.8319 14.2431 71.7486 14.1218 71.6915 13.9883C71.6344 13.8548 71.6048 13.7117 71.6055 13.5673V9.09168C71.6055 8.80024 71.7259 8.52077 71.9386 8.31467C72.1519 8.10856 72.4402 7.9926 72.7417 7.99219Z" fill="#00BDFF"/>
<path d="M60.8434 15.9922H56.3634C56.084 15.9938 55.8142 16.0943 55.6057 16.2748C55.3972 16.4553 55.2637 16.7033 55.2307 16.9722C55.0325 18.5384 55.0325 20.1222 55.2307 21.6884C55.2637 21.9571 55.3972 22.2049 55.6057 22.3852C55.8142 22.5654 56.084 22.6655 56.3634 22.6668H60.8434C60.9927 22.667 61.14 22.6387 61.2783 22.5836C61.416 22.5284 61.5412 22.4474 61.6472 22.3453C61.7525 22.2431 61.8364 22.1218 61.8936 21.9883C61.9507 21.8548 61.9796 21.7117 61.9796 21.5673V17.0917C61.9796 16.8001 61.8598 16.5204 61.6465 16.3142C61.4339 16.108 61.1448 15.9922 60.8434 15.9922Z" fill="#00BDFF"/>
<path d="M64.4838 15.9922H69.1084C69.2577 15.992 69.4057 16.0203 69.5433 16.0755C69.6816 16.1306 69.8069 16.2116 69.9121 16.3138C70.0181 16.4159 70.1014 16.5372 70.1585 16.6707C70.2156 16.8042 70.2445 16.9472 70.2445 17.0917V21.5673C70.2445 21.7117 70.2156 21.8548 70.1585 21.9883C70.1014 22.1218 70.0181 22.2431 69.9121 22.3453C69.8069 22.4474 69.6816 22.5284 69.5433 22.5836C69.4057 22.6388 69.2577 22.667 69.1084 22.6668H64.4838C64.3345 22.667 64.1866 22.6388 64.0489 22.5836C63.9106 22.5284 63.7853 22.4474 63.6801 22.3453C63.5741 22.2431 63.4908 22.1218 63.4337 21.9883C63.3766 21.8548 63.347 21.7117 63.3477 21.5673V17.0917C63.3477 16.8001 63.4674 16.5204 63.6801 16.3142C63.8934 16.108 64.1824 15.9922 64.4838 15.9922Z" fill="#00BDFF"/>
<path d="M72.7417 15.9922H77.3744C77.5238 15.992 77.6717 16.0203 77.8094 16.0755C77.9477 16.1306 78.0729 16.2116 78.1782 16.3138C78.2842 16.4159 78.3675 16.5372 78.4246 16.6707C78.4817 16.8042 78.5106 16.9472 78.5106 17.0917V21.5673C78.5106 21.7117 78.4817 21.8548 78.4246 21.9883C78.3675 22.1218 78.2842 22.2431 78.1782 22.3453C78.0729 22.4474 77.9477 22.5284 77.8094 22.5836C77.6717 22.6388 77.5238 22.667 77.3744 22.6668H72.7417C72.5923 22.667 72.4444 22.6388 72.3067 22.5836C72.1684 22.5284 72.0432 22.4474 71.9379 22.3453C71.8319 22.2431 71.7486 22.1218 71.6915 21.9883C71.6344 21.8548 71.6048 21.7117 71.6055 21.5673V17.0917C71.6055 16.8001 71.7252 16.5204 71.9379 16.3142C72.1512 16.108 72.4402 15.9922 72.7417 15.9922Z" fill="#00BDFF"/>
<path d="M81.0073 15.9922H85.6318C85.7811 15.992 85.9291 16.0203 86.0667 16.0754C86.205 16.1306 86.3303 16.2115 86.4363 16.3136C86.5416 16.4158 86.6255 16.537 86.6826 16.6705C86.7404 16.804 86.7693 16.9472 86.7693 17.0917V21.5673C86.7693 21.7118 86.7404 21.8549 86.6826 21.9884C86.6255 22.1219 86.5416 22.2432 86.4363 22.3453C86.3303 22.4474 86.205 22.5284 86.0667 22.5836C85.9291 22.6388 85.7811 22.667 85.6318 22.6668H81.0073C80.8579 22.667 80.71 22.6388 80.5717 22.5836C80.434 22.5284 80.3088 22.4474 80.2028 22.3453C80.0975 22.2431 80.0136 22.1218 79.9571 21.9883C79.9 21.8548 79.8704 21.7117 79.8711 21.5673V17.0917C79.8711 16.8001 79.9908 16.5204 80.2035 16.3142C80.4168 16.108 80.7059 15.9922 81.0073 15.9922Z" fill="#00BDFF"/>
<path d="M89.2729 22.6668H93.7508C94.0309 22.6655 94.3014 22.5652 94.5099 22.3847C94.7191 22.2042 94.8526 21.956 94.8856 21.6867C95.0838 20.1206 95.0838 18.5368 94.8856 16.9706C94.8519 16.7017 94.7184 16.4539 94.5099 16.2737C94.3007 16.0935 94.0309 15.9934 93.7508 15.9922H89.2729C88.9722 15.9922 88.6831 16.108 88.4698 16.3142C88.2565 16.5204 88.1367 16.8001 88.1367 17.0917V21.5673C88.1367 21.8589 88.2565 22.1386 88.4698 22.3448C88.6831 22.5509 88.9722 22.6668 89.2729 22.6668Z" fill="#00BDFF"/>
<path d="M72.7417 23.9844H77.3744C77.5238 23.9842 77.6717 24.0125 77.8094 24.0676C77.9477 24.1228 78.0729 24.2038 78.1782 24.3059C78.2842 24.4081 78.3675 24.5293 78.4246 24.6628C78.4817 24.7964 78.5106 24.9394 78.5106 25.0839V29.5595C78.5106 29.7039 78.4817 29.847 78.4246 29.9805C78.3675 30.114 78.2842 30.2352 78.1782 30.3374C78.0729 30.4396 77.9477 30.5206 77.8094 30.5758C77.6717 30.6309 77.5238 30.6592 77.3744 30.659H72.7417C72.5923 30.6592 72.4444 30.6309 72.3067 30.5758C72.1684 30.5206 72.0432 30.4396 71.9379 30.3374C71.8319 30.2352 71.7486 30.114 71.6915 29.9805C71.6344 29.847 71.6048 29.7039 71.6055 29.5595V25.0839C71.6055 24.7923 71.7252 24.5126 71.9379 24.3064C72.1512 24.1002 72.4402 23.9844 72.7417 23.9844Z" fill="#00BDFF"/>
<path d="M81.0073 23.9844H85.6318C85.7811 23.9842 85.9291 24.0125 86.0667 24.0676C86.205 24.1228 86.3303 24.2037 86.4363 24.3058C86.5416 24.4079 86.6255 24.5292 86.6826 24.6627C86.7404 24.7962 86.7693 24.9394 86.7693 25.0839V29.5595C86.7693 29.704 86.7404 29.8471 86.6826 29.9806C86.6255 30.1141 86.5416 30.2354 86.4363 30.3375C86.3303 30.4396 86.205 30.5206 86.0667 30.5758C85.9291 30.6309 85.7811 30.6592 85.6318 30.659H81.0073C80.8579 30.6592 80.71 30.6309 80.5717 30.5758C80.434 30.5206 80.3088 30.4396 80.2028 30.3374C80.0975 30.2352 80.0136 30.114 79.9571 29.9805C79.9 29.847 79.8704 29.7039 79.8711 29.5595V25.0839C79.8711 24.7923 79.9908 24.5126 80.2035 24.3064C80.4168 24.1002 80.7059 23.9844 81.0073 23.9844Z" fill="#00BDFF"/>
<path d="M89.2729 30.6606H90.641C90.8254 30.6617 91.0071 30.6191 91.1709 30.5367C91.334 30.4542 91.4744 30.3344 91.579 30.1876C92.616 28.7145 93.4363 27.1094 94.0179 25.4181C94.0729 25.253 94.0867 25.0776 94.0578 24.9064C94.0289 24.7352 93.9587 24.5731 93.8527 24.4331C93.7467 24.2932 93.6084 24.1797 93.448 24.1017C93.2877 24.0237 93.1108 23.9835 92.9319 23.9844H89.2729C88.9722 23.9844 88.6831 24.1 88.4705 24.3058C88.2571 24.5117 88.1374 24.7909 88.1367 25.0823V29.5579C88.1367 29.7025 88.1663 29.8457 88.2227 29.9794C88.2799 30.113 88.3638 30.2346 88.4691 30.337C88.5744 30.4394 88.6997 30.5206 88.838 30.5762C88.9756 30.6317 89.1236 30.6604 89.2729 30.6606Z" fill="#00BDFF"/>
<path d="M63.3477 33.0761V34.4016C63.3457 34.5795 63.3897 34.755 63.4744 34.9129C63.559 35.0708 63.6822 35.2062 63.8329 35.3074C65.3558 36.3112 67.015 37.1056 68.763 37.6679C68.9336 37.7206 69.1146 37.7335 69.2908 37.7057C69.4676 37.6779 69.6349 37.61 69.7794 37.5077C69.9232 37.4053 70.0409 37.2714 70.1214 37.1169C70.2019 36.9624 70.2439 36.7916 70.2432 36.6184V33.0761C70.2432 32.9317 70.2143 32.7888 70.1572 32.6554C70.1001 32.522 70.0168 32.4008 69.9115 32.2987C69.8062 32.1966 69.681 32.1155 69.5433 32.0602C69.405 32.005 69.2577 31.9765 69.1084 31.9766H64.4839C64.1825 31.9766 63.8934 32.0924 63.6801 32.2986C63.4675 32.5048 63.3477 32.7844 63.3477 33.0761Z" fill="#00BDFF"/>
<path d="M71.6055 33.0761V37.4095C71.6068 37.6805 71.7108 37.9416 71.8973 38.1438C72.0838 38.3459 72.3398 38.4752 72.6178 38.5075C74.2364 38.6995 75.8728 38.6995 77.4914 38.5075C77.7694 38.4752 78.0254 38.3458 78.2112 38.1436C78.3977 37.9414 78.501 37.6804 78.5023 37.4095V33.0761C78.5023 32.9316 78.4734 32.7885 78.4163 32.655C78.3592 32.5215 78.2759 32.4003 78.1699 32.2981C78.0647 32.196 77.9394 32.115 77.8011 32.0598C77.6635 32.0046 77.5155 31.9763 77.3662 31.9766H72.7416C72.4402 31.9766 72.1512 32.0924 71.9379 32.2986C71.7252 32.5048 71.6055 32.7845 71.6055 33.0761Z" fill="#00BDFF"/>
<path d="M79.8711 33.0761V36.6184C79.8704 36.7917 79.9117 36.9627 79.9929 37.1174C80.0734 37.2722 80.1904 37.4062 80.3349 37.5086C80.4794 37.6109 80.6474 37.6787 80.8242 37.7064C81.0011 37.7341 81.1821 37.7209 81.352 37.6679C83.1 37.1059 84.7592 36.3114 86.2807 35.3074C86.4321 35.2062 86.5553 35.0708 86.64 34.9129C86.7246 34.755 86.768 34.5795 86.7659 34.4016V33.0761C86.7666 32.9317 86.737 32.7888 86.6806 32.6554C86.6234 32.522 86.5402 32.4008 86.4342 32.2987C86.3289 32.1966 86.2043 32.1155 86.066 32.0602C85.9284 32.005 85.7811 31.9765 85.6318 31.9766H81.0073C80.7059 31.9766 80.4168 32.0924 80.2035 32.2986C79.9908 32.5048 79.8711 32.7844 79.8711 33.0761Z" fill="#00BDFF"/>
</g>
</svg>
